<svg id="ebp98gzcldnk1" xmlns="http://www.w3.org/2000/svg" xmlns:xlink="http://www.w3.org/1999/xlink" viewBox="0 0 10000 6530" shape-rendering="geometricPrecision" text-rendering="geometricPrecision"><style><![CDATA[#ebp98gzcldnk2_tr {animation: ebp98gzcldnk2_tr__tr 1000ms linear 1 normal forwards}@keyframes ebp98gzcldnk2_tr__tr { 0% {transform: translate(4943.741879px,5664.270293px) rotate(0deg);animation-timing-function: cubic-bezier(0.215000,0.610000,0.355000,1)} 100% {transform: translate(4943.741879px,5664.270293px) rotate(-22deg)} }#ebp98gzcldnk5_tr {animation: ebp98gzcldnk5_tr__tr 1000ms linear 1 normal forwards}@keyframes ebp98gzcldnk5_tr__tr { 0% {transform: translate(4970.773821px,5671.336849px) rotate(0deg);animation-timing-function: cubic-bezier(0.215000,0.610000,0.355000,1)} 100% {transform: translate(4970.773821px,5671.336849px) rotate(22deg)} }#ebp98gzcldnk8_tr {animation: ebp98gzcldnk8_tr__tr 1000ms linear 1 normal forwards}@keyframes ebp98gzcldnk8_tr__tr { 0% {transform: translate(5000.983633px,5669.425971px) rotate(0deg);animation-timing-function: cubic-bezier(0.215000,0.610000,0.355000,1)} 100% {transform: translate(5000.983633px,5669.425971px) rotate(44deg)} }#ebp98gzcldnk11_tr {animation: ebp98gzcldnk11_tr__tr 1000ms linear 1 normal forwards}@keyframes ebp98gzcldnk11_tr__tr { 0% {transform: translate(5000.983643px,5655.495951px) rotate(0deg);animation-timing-function: cubic-bezier(0.215000,0.610000,0.355000,1)} 100% {transform: translate(5000.983643px,5655.495951px) rotate(-44deg)} }]]></style><g id="ebp98gzcldnk2_tr" transform="translate(4943.741879,5664.270293) rotate(0)"><g id="ebp98gzcldnk2" transform="translate(-2096.774472,-5761.363677)"><path id="ebp98gzcldnk3" d="M1998.410904,5624.128567C1492.315925,5186.641440,1161.465775,4618.034251,1017.946304,3944.783168C978.667291,3755.667695,975.645828,3726.669989,975.645828,3361.046741C975.645828,2995.423493,978.667291,2966.425787,1017.946304,2777.310314C1161.465775,2102.798461,1495.337388,1531.669733,1999.921635,1096.704145L2154.016225,963.062544L2309.621547,1097.964915C2815.716526,1535.452042,3146.566676,2104.059231,3290.086147,2777.310314C3329.365160,2966.425787,3332.386623,2995.423493,3332.386623,3361.046741C3332.386623,3726.669989,3329.365160,3755.667695,3290.086147,3944.783168C3146.566676,4619.295021,2812.695063,5190.423749,2308.110816,5625.389337L2154.016225,5759.030938L1998.410904,5624.128567Z" fill="rgb(39,68,65)" stroke="none" stroke-width="1"/><path id="ebp98gzcldnk4" d="M2052,5155C1717,4808,1498,4357,1403,3823C1377,3673,1375,3650,1375,3360C1375,3070,1377,3047,1403,2897C1498,2362,1719,1909,2053,1564L2155,1458L2258,1565C2593,1912,2812,2363,2907,2897C2933,3047,2935,3070,2935,3360C2935,3650,2933,3673,2907,3823C2812,4358,2591,4811,2257,5156L2155,5262L2052,5155Z" fill="rgb(81,139,91)" stroke="none" stroke-width="1"/></g></g><g id="ebp98gzcldnk5_tr" transform="translate(4970.773821,5671.336849) rotate(0)"><g id="ebp98gzcldnk5" transform="translate(-2123.806413,-5768.430232)"><path id="ebp98gzcldnk6" d="M1998.410904,5624.128567C1492.315925,5186.641440,1161.465775,4618.034251,1017.946304,3944.783168C978.667291,3755.667695,975.645828,3726.669989,975.645828,3361.046741C975.645828,2995.423493,978.667291,2966.425787,1017.946304,2777.310314C1161.465775,2102.798461,1495.337388,1531.669733,1999.921635,1096.704145L2154.016225,963.062544L2309.621547,1097.964915C2815.716526,1535.452042,3146.566676,2104.059231,3290.086147,2777.310314C3329.365160,2966.425787,3332.386623,2995.423493,3332.386623,3361.046741C3332.386623,3726.669989,3329.365160,3755.667695,3290.086147,3944.783168C3146.566676,4619.295021,2812.695063,5190.423749,2308.110816,5625.389337L2154.016225,5759.030938L1998.410904,5624.128567Z" fill="rgb(39,68,65)" stroke="none" stroke-width="1"/><path id="ebp98gzcldnk7" d="M2052,5155C1717,4808,1498,4357,1403,3823C1377,3673,1375,3650,1375,3360C1375,3070,1377,3047,1403,2897C1498,2362,1719,1909,2053,1564L2155,1458L2258,1565C2593,1912,2812,2363,2907,2897C2933,3047,2935,3070,2935,3360C2935,3650,2933,3673,2907,3823C2812,4358,2591,4811,2257,5156L2155,5262L2052,5155Z" fill="rgb(81,139,91)" stroke="none" stroke-width="1"/></g></g><g id="ebp98gzcldnk8_tr" transform="translate(5000.983633,5669.425971) rotate(0)"><g id="ebp98gzcldnk8" transform="translate(-2154.016226,-5759.030938)"><path id="ebp98gzcldnk9" d="M1998.410904,5624.128567C1492.315925,5186.641440,1161.465775,4618.034251,1017.946304,3944.783168C978.667291,3755.667695,975.645828,3726.669989,975.645828,3361.046741C975.645828,2995.423493,978.667291,2966.425787,1017.946304,2777.310314C1161.465775,2102.798461,1495.337388,1531.669733,1999.921635,1096.704145L2154.016225,963.062544L2309.621547,1097.964915C2815.716526,1535.452042,3146.566676,2104.059231,3290.086147,2777.310314C3329.365160,2966.425787,3332.386623,2995.423493,3332.386623,3361.046741C3332.386623,3726.669989,3329.365160,3755.667695,3290.086147,3944.783168C3146.566676,4619.295021,2812.695063,5190.423749,2308.110816,5625.389337L2154.016225,5759.030938L1998.410904,5624.128567Z" fill="rgb(39,68,65)" stroke="none" stroke-width="1"/><path id="ebp98gzcldnk10" d="M2052,5155C1717,4808,1498,4357,1403,3823C1377,3673,1375,3650,1375,3360C1375,3070,1377,3047,1403,2897C1498,2362,1719,1909,2053,1564L2155,1458L2258,1565C2593,1912,2812,2363,2907,2897C2933,3047,2935,3070,2935,3360C2935,3650,2933,3673,2907,3823C2812,4358,2591,4811,2257,5156L2155,5262L2052,5155Z" fill="rgb(81,139,91)" stroke="none" stroke-width="1"/></g></g><g id="ebp98gzcldnk11_tr" transform="translate(5000.983643,5655.495951) rotate(0)"><g id="ebp98gzcldnk11" transform="translate(-2155,-5750.495841)"><path id="ebp98gzcldnk12" d="M1998.410904,5624.128567C1492.315925,5186.641440,1161.465775,4618.034251,1017.946304,3944.783168C978.667291,3755.667695,975.645828,3726.669989,975.645828,3361.046741C975.645828,2995.423493,978.667291,2966.425787,1017.946304,2777.310314C1161.465775,2102.798461,1495.337388,1531.669733,1999.921635,1096.704145L2154.016225,963.062544L2309.621547,1097.964915C2815.716526,1535.452042,3146.566676,2104.059231,3290.086147,2777.310314C3329.365160,2966.425787,3332.386623,2995.423493,3332.386623,3361.046741C3332.386623,3726.669989,3329.365160,3755.667695,3290.086147,3944.783168C3146.566676,4619.295021,2812.695063,5190.423749,2308.110816,5625.389337L2154.016225,5759.030938L1998.410904,5624.128567Z" transform="matrix(1 0 0 1 0.98377449999975 -1.04674099500062)" fill="rgb(39,68,65)" stroke="none" stroke-width="1"/><path id="ebp98gzcldnk13" d="M2052,5155C1717,4808,1498,4357,1403,3823C1377,3673,1375,3650,1375,3360C1375,3070,1377,3047,1403,2897C1498,2362,1719,1909,2053,1564L2155,1458L2258,1565C2593,1912,2812,2363,2907,2897C2933,3047,2935,3070,2935,3360C2935,3650,2933,3673,2907,3823C2812,4358,2591,4811,2257,5156L2155,5262L2052,5155Z" fill="rgb(81,139,91)" stroke="none" stroke-width="1"/></g></g><g id="ebp98gzcldnk14" transform="matrix(1 0 0 1 2845.98370361000207 -96.04669189500009)"><path id="ebp98gzcldnk15" d="M1998.410904,5624.128567C1492.315925,5186.641440,1161.465775,4618.034251,1017.946304,3944.783168C978.667291,3755.667695,975.645828,3726.669989,975.645828,3361.046741C975.645828,2995.423493,978.667291,2966.425787,1017.946304,2777.310314C1161.465775,2102.798461,1495.337388,1531.669733,1999.921635,1096.704145L2154.016225,963.062544L2309.621547,1097.964915C2815.716526,1535.452042,3146.566676,2104.059231,3290.086147,2777.310314C3329.365160,2966.425787,3332.386623,2995.423493,3332.386623,3361.046741C3332.386623,3726.669989,3329.365160,3755.667695,3290.086147,3944.783168C3146.566676,4619.295021,2812.695063,5190.423749,2308.110816,5625.389337L2154.016225,5759.030938L1998.410904,5624.128567Z" fill="rgb(39,68,65)" stroke="none" stroke-width="1"/><path id="ebp98gzcldnk16" d="M2052,5155C1717,4808,1498,4357,1403,3823C1377,3673,1375,3650,1375,3360C1375,3070,1377,3047,1403,2897C1498,2362,1719,1909,2053,1564L2155,1458L2258,1565C2593,1912,2812,2363,2907,2897C2933,3047,2935,3070,2935,3360C2935,3650,2933,3673,2907,3823C2812,4358,2591,4811,2257,5156L2155,5262L2052,5155Z" fill="rgb(81,139,91)" stroke="none" stroke-width="1"/></g></svg>