<svg id="efl1eg4ptdq1" xmlns="http://www.w3.org/2000/svg" xmlns:xlink="http://www.w3.org/1999/xlink" viewBox="0 0 1100 385" shape-rendering="geometricPrecision" text-rendering="geometricPrecision"><g id="efl1eg4ptdq2"><rect id="efl1eg4ptdq3" width="404.997000" height="386.998000" rx="2" ry="0" transform="matrix(1 0 0 1 680 5.17155000000000)" fill="rgb(229,229,229)" stroke="rgb(142,142,142)" stroke-width="1" stroke-dasharray="5,5"/><rect id="efl1eg4ptdq4" width="130" height="130" rx="5" ry="0" transform="matrix(1 0 0 1 735.99900000000002 58.50470000000000)" fill="rgb(190,208,216)" stroke="none" stroke-width="1"/><rect id="efl1eg4ptdq5" width="130" height="130" rx="5" ry="0" transform="matrix(1 0 0 1 921.99800000000005 45.50480000000000)" fill="rgb(209,209,209)" stroke="none" stroke-width="1"/><rect id="efl1eg4ptdq6" width="130" height="130" rx="5" ry="0" transform="matrix(1 0 0 1 917.99800000000005 41.50480000000000)" fill="rgb(191,191,191)" stroke="none" stroke-width="1"/><rect id="efl1eg4ptdq7" width="130" height="130" rx="5" ry="0" transform="matrix(1 0 0 1 900.99800000000005 230.50299999999999)" fill="rgb(209,163,163)" stroke="none" stroke-width="1"/><rect id="efl1eg4ptdq8" width="130" height="130" rx="5" ry="0" transform="matrix(1 0 0 1 897.99800000000005 227.50299999999999)" fill="rgb(206,144,144)" stroke="none" stroke-width="1"/><g id="efl1eg4ptdq9" opacity="0.6"><path id="efl1eg4ptdq10" d="M1002.877300,312.994767C998.200801,315.432284,973.975561,325.392865,968.818131,328.081629C963.660700,330.770736,960.795651,330.744721,956.721257,328.797036C952.647205,326.849350,926.867241,316.435907,922.223260,314.216093C919.902468,313.107042,918.681827,312.170510,918.681827,311.286007L918.681827,302.428658C918.681827,302.428658,952.244319,295.122269,957.662582,293.178349C963.080503,291.234429,964.960413,291.164257,969.571191,292.853164C974.182653,294.542756,1001.753531,299.517056,1006.310567,301.186110L1006.308513,309.918177C1006.309198,310.793780,1005.257653,311.754273,1002.877300,312.994767" fill="rgb(145,38,38)" stroke="none" stroke-width="1"/><path id="efl1eg4ptdq11" d="M1002.875589,304.189790C998.199432,306.626280,973.974877,316.587203,968.817447,319.275625C963.660359,321.965074,960.795310,321.938717,956.721258,319.991032C952.646864,318.044716,926.867926,307.629561,922.224287,305.411116C917.580648,303.191302,917.483435,301.663618,922.044922,299.877498C926.606409,298.090693,952.243977,288.032215,957.662924,286.088294C963.080845,284.145058,964.960413,284.074202,969.571191,285.763794C974.182311,287.452701,998.262415,297.037437,1002.818767,298.706148C1007.376831,300.376913,1007.551746,301.752616,1002.875589,304.189790" fill="rgb(198,48,43)" stroke="none" stroke-width="1"/><path id="efl1eg4ptdq12" d="M1002.877300,298.663018C998.200801,301.100877,973.975561,311.061116,968.818131,313.750907C963.660700,316.438987,960.795651,316.412972,956.721257,314.465287C952.646863,312.518628,926.867241,302.104158,922.223260,299.884344C919.902468,298.775293,918.681827,297.840130,918.681827,296.955285L918.681827,288.096909C918.681827,288.096909,952.244319,280.790863,957.662582,278.846942C963.080503,276.903022,964.960413,276.832508,969.571191,278.521757C974.182996,280.211006,1001.753873,285.184280,1006.310567,286.853676L1006.308513,295.586770C1006.309198,296.462031,1005.257653,297.422524,1002.877300,298.663018" fill="rgb(145,38,38)" stroke="none" stroke-width="1"/><path id="efl1eg4ptdq13" d="M1002.875589,289.858042C998.199432,292.295216,973.974877,302.255455,968.817447,304.944904C963.660359,307.633326,960.795310,307.606969,956.721258,305.659284C952.646864,303.712968,926.867926,293.298155,922.224287,291.079368C917.580648,288.860239,917.483435,287.332212,922.044922,285.545408C926.606409,283.759630,952.244319,273.700467,957.662924,271.756889C963.080845,269.813311,964.960413,269.742797,969.571191,271.432047C974.182311,273.120954,998.262415,282.705005,1002.818767,284.374401C1007.376831,286.044824,1007.551746,287.420869,1002.875589,289.858043" fill="rgb(198,48,43)" stroke="none" stroke-width="1"/><path id="efl1eg4ptdq14" d="M1002.877300,283.800020C998.200801,286.237194,973.975561,296.198118,968.818131,298.887909C963.660700,301.576331,960.795651,301.549974,956.721257,299.602289C952.646863,297.655630,926.867241,287.240818,922.223260,285.022030C919.902468,283.911952,918.681827,282.976447,918.681827,282.092629L918.681827,273.233911C918.681827,273.233911,952.244319,265.928207,957.662582,263.984629C963.080503,262.040366,964.960413,261.970537,969.571191,263.659444C974.182996,265.348693,1001.753873,270.321967,1006.310567,271.991363L1006.308513,280.724115C1006.309198,281.598691,1005.257653,282.559184,1002.877300,283.800021" fill="rgb(145,38,38)" stroke="none" stroke-width="1"/><path id="efl1eg4ptdq15" d="M1002.875589,274.995043C998.199432,277.432217,973.974877,287.393141,968.817447,290.081563C963.660359,292.769985,960.795310,292.743628,956.721258,290.796970C952.647206,288.849284,926.867926,278.435156,922.224630,276.216027C917.580649,273.997240,917.483778,272.468871,922.044923,270.682409C926.606410,268.896289,952.244320,258.838495,957.662925,256.894232C963.080846,254.950312,964.960414,254.880482,969.571192,256.569732C974.182312,258.258981,998.262416,267.843033,1002.818768,269.512428C1007.376832,271.181482,1007.551747,272.557869,1002.875590,274.995043" fill="rgb(198,48,43)" stroke="none" stroke-width="1"/><path id="efl1eg4ptdq16" d="M973.204360,266.378331L965.670342,267.160486L963.983831,271.218792L961.259809,266.690166L952.560260,265.908353L959.051633,263.567365L957.103947,259.973902L963.181479,262.350832L968.910893,260.475029L967.362329,264.190693L973.204359,266.378331M963.534048,286.066729L949.473400,280.234968L969.621164,277.142290L963.534047,286.066730M944.040075,268.634087C949.987533,268.634087,954.808826,270.503044,954.808826,272.808090C954.808826,275.113821,949.987534,276.982436,944.040075,276.982436C938.092616,276.982436,933.271324,275.113479,933.271324,272.808090C933.271324,270.503043,938.092616,268.634087,944.040075,268.634087" fill="rgb(255,255,255)" stroke="none" stroke-width="1"/><path id="efl1eg4ptdq17" d="M982.108262,267.487725L994.032617,272.199824L982.118531,276.907473L982.108262,267.487383" fill="rgb(98,27,28)" stroke="none" stroke-width="1"/><path id="efl1eg4ptdq18" d="M968.916029,272.706085L982.108262,267.487725L982.118531,276.907472L980.824980,277.413391L968.916029,272.706085" fill="rgb(154,41,40)" stroke="none" stroke-width="1"/></g><g id="efl1eg4ptdq19" opacity="0.6"><path id="efl1eg4ptdq20" d="M1017.848396,128.904328L1017.848396,137.471045C1017.848396,144.180130,1001.624609,149.624073,982.996007,149.624073C964.370890,149.624073,948.143618,144.180130,948.143618,137.471045L948.143618,128.904328C956.570926,134.961673,972.557716,136.767027,982.996007,136.767027C993.472635,136.767027,1009.442000,134.944247,1017.848396,128.904328ZM982.996007,117.023149C972.519379,117.023149,956.550014,115.200369,948.143618,109.160450L948.143618,117.643521C948.143618,124.356091,964.370890,129.796549,982.996007,129.796549C1001.624609,129.796549,1017.848396,124.352606,1017.848396,117.643521L1017.848396,109.160450C1009.421088,115.217795,993.434298,117.023149,982.996007,117.023149ZM982.996007,65.978340C964.370890,65.978340,948.143618,71.422283,948.143618,78.134853C948.143618,84.847423,964.370890,90.287881,982.996007,90.287881C1001.624609,90.287881,1017.848396,84.843938,1017.848396,78.134853C1017.848396,71.422283,1001.624609,65.978340,982.996007,65.978340ZM982.996007,97.258359C972.519379,97.258359,956.550014,95.435579,948.143618,89.395660L948.143618,97.899643C948.143618,104.612213,964.370890,110.052671,982.996007,110.052671C1001.624609,110.052671,1017.848396,104.608728,1017.848396,97.899643L1017.848396,89.395660C1009.421088,95.453005,993.434298,97.258359,982.996007,97.258359Z" fill="rgb(0,0,0)" stroke="none" stroke-width="1"/></g><rect id="efl1eg4ptdq21" width="130" height="130" rx="5" ry="0" transform="matrix(1 0 0 1 732.99900000000002 55.50470000000000)" fill="rgb(146,187,206)" stroke="none" stroke-width="1"/><g id="efl1eg4ptdq22" opacity="0.6"><path id="efl1eg4ptdq23" d="M831.276016,86.936041L750.158947,86.936041L750.158947,76.047946C750.158947,74.594641,751.337058,73.416530,752.790363,73.416530L828.644600,73.416530C830.097905,73.416530,831.276016,74.594641,831.276016,76.047946L831.276016,86.936041Z" fill="rgb(58,85,106)" stroke="none" stroke-width="1"/><path id="efl1eg4ptdq24" d="M828.644600,151.829697L752.790363,151.829697C751.337058,151.829697,750.158947,150.651586,750.158947,149.198281L750.158947,86.936042L831.276016,86.936042L831.276016,149.198281C831.276016,150.651586,830.097905,151.829697,828.644600,151.829697Z" fill="rgb(225,230,233)" stroke="none" stroke-width="1"/><circle id="efl1eg4ptdq25" r="16.041000" transform="matrix(0.21071600000000 0 0 0.21071600000000 758.94830388000014 80.17678816399997)" fill="rgb(252,212,98)" stroke="none" stroke-width="1"/><circle id="efl1eg4ptdq26" r="16.041000" transform="matrix(0.21071600000000 0 0 0.21071600000000 769.76435616000003 80.17678816399997)" fill="rgb(39,162,219)" stroke="none" stroke-width="1"/><circle id="efl1eg4ptdq27" r="16.041000" transform="matrix(0.21071600000000 0 0 0.21071600000000 780.58040843999993 80.17678816399997)" fill="rgb(68,196,161)" stroke="none" stroke-width="1"/><path id="efl1eg4ptdq28" d="M842.845144,145.431739L848.835577,143.957573L848.835577,136.411005L842.844933,134.936839C842.222690,132.109247,841.104844,129.472773,839.593381,127.108123L842.792254,121.821058L837.455882,116.484686L832.168396,119.683770C829.803956,118.172307,827.167694,117.054882,824.340312,116.432639L822.865935,110.441574L815.319157,110.441574L813.844780,116.432639C811.016977,117.054882,808.380714,118.172728,806.015853,119.684191L800.728367,116.485318L795.391995,121.821901L798.591079,127.109176C797.079827,129.473826,795.961981,132.109878,795.339948,134.937260L789.349093,136.411637L789.349093,143.958205L795.339948,145.432371C795.962191,148.259963,797.079827,150.896226,798.591289,153.260876L795.392627,158.547941L800.728999,163.884313L806.015853,160.685651C808.380714,162.197114,811.017187,163.315171,813.844990,163.937203L815.319156,169.927215L822.865934,169.927215L824.340100,163.937203C827.168114,163.314960,829.804798,162.197114,832.169448,160.685440L837.456091,163.883681L842.792252,158.547309L839.593590,153.260877C841.105053,150.896227,842.222899,148.259543,842.845142,145.431740Z" fill="rgb(39,162,219)" stroke="none" stroke-width="1"/><circle id="efl1eg4ptdq29" r="89.825000" transform="matrix(0.21071600000000 0 0 0.21071600000000 819.09507891999988 140.18470136000002)" fill="rgb(225,230,233)" stroke="none" stroke-width="1"/><circle id="efl1eg4ptdq30" r="51.325000" transform="matrix(0.21071600000000 0 0 0.21071600000000 819.09507891999988 140.18470136000002)" fill="rgb(28,117,161)" stroke="none" stroke-width="1"/><g id="efl1eg4ptdq31" transform="matrix(0.21071600000000 0 0 0.21071600000000 -274.91500000000002 -84.74620000000000)"><path id="efl1eg4ptdq32" d="M4933.989447,917.977382L4927.428447,932.883382L4915.615447,932.883382L4944.486447,867.360382L4956.299447,867.360382L4985.170447,932.883382L4973.361447,932.883382L4966.797447,917.977382L4933.989447,917.977382ZM4962.299447,907.763382L4950.394447,880.765382L4938.489447,907.763382L4962.299447,907.763382Z" fill="rgb(58,85,106)" stroke="none" stroke-width="1"/><path id="efl1eg4ptdq33" d="M5038.510447,873.075382C5043.072447,876.889382,5045.353447,882.763382,5045.353447,890.697382C5045.353447,898.638382,5043.022447,904.452382,5038.369447,908.136382C5033.712447,911.821382,5026.571447,913.667382,5016.948447,913.667382L5005.326447,913.667382L5005.326447,932.884382L4994.264447,932.884382L4994.264447,867.361382L5016.761447,867.361382C5026.697447,867.361382,5033.948447,869.268382,5038.510447,873.075382ZM5030.683447,900.119382C5032.899447,897.777382,5034.009447,894.344382,5034.009447,889.813382C5034.009447,885.282382,5032.601447,882.077382,5029.790447,880.201382C5026.979447,878.324382,5022.573447,877.394382,5016.573447,877.394382L5005.324447,877.394382L5005.324447,903.637382L5018.167447,903.637382C5024.290447,903.635382,5028.463447,902.468382,5030.683447,900.119382Z" fill="rgb(58,85,106)" stroke="none" stroke-width="1"/><path id="efl1eg4ptdq34" d="M5058.382447,867.361382L5069.444447,867.361382L5069.444447,932.884382L5058.382447,932.884382L5058.382447,867.361382Z" fill="rgb(58,85,106)" stroke="none" stroke-width="1"/></g><path id="efl1eg4ptdq35" d="M823.381978,82.807701L792.221358,82.807701C790.768053,82.807701,789.589942,81.629590,789.589942,80.176285L789.589942,80.176285C789.589942,78.722980,790.768053,77.544869,792.221358,77.544869L823.381767,77.544869C824.835072,77.544869,826.013183,78.722980,826.013183,80.176285L826.013183,80.176285C826.013183,81.629590,824.835072,82.807701,823.381978,82.807701Z" fill="rgb(225,230,233)" stroke="none" stroke-width="1"/></g><line id="efl1eg4ptdq36" x1="494.500401" y1="204.500021" x2="708.498928" y2="278.166187" fill="none" stroke="rgb(130,130,130)" stroke-width="1"/><line id="efl1eg4ptdq37" x1="373.501234" y1="252.499690" x2="708.165591" y2="278.166180" fill="none" stroke="rgb(130,130,130)" stroke-width="1"/><line id="efl1eg4ptdq38" x1="181.502555" y1="340.499085" x2="708.498938" y2="278.499505" fill="none" stroke="rgb(130,130,130)" stroke-width="1"/><text id="efl1eg4ptdq39" dx="0" dy="0" font-family="&quot;Trebuchet MS&quot;, Gadget, sans-serif" font-size="17" font-weight="bold" transform="matrix(1 0 0 1 688.50000000000000 32.50000000000000)" opacity="0.6" fill="rgb(0,0,0)" stroke="rgb(142,142,142)" stroke-width="0"><![CDATA[YOUR SERVER]]></text><line id="efl1eg4ptdq40" x1="770.500761" y1="186.499979" x2="770.500761" y2="214" fill="none" stroke="rgb(132,132,132)" stroke-width="1"/><line id="efl1eg4ptdq41" x1="891.834468" y1="92.833066" x2="891.834468" y2="146.333166" transform="matrix(0 1 -1 0 1011.41999999999996 -772.25099999999998)" fill="none" stroke="rgb(132,132,132)" stroke-width="1"/><line id="efl1eg4ptdq42" x1="868.501109" y1="261.500251" x2="868.501109" y2="319.000367" transform="matrix(0 1 -1 0 1158.75000000000000 -578.25099999999998)" fill="none" stroke="rgb(132,132,132)" stroke-width="1"/></g><g id="efl1eg4ptdq43"><rect id="efl1eg4ptdq44" width="159" height="187" rx="0" ry="0" transform="matrix(1 0 0 1 218.00399999999999 78.50340000000000)" fill="rgb(174,226,188)" stroke="none" stroke-width="1"/><rect id="efl1eg4ptdq45" width="159" height="187" rx="0" ry="0" transform="matrix(1 0 0 1 215.00399999999999 76.50340000000000)" fill="rgb(159,198,168)" stroke="none" stroke-width="1"/><rect id="efl1eg4ptdq46" width="90.000200" height="18.000800" rx="6" ry="0" transform="matrix(1 0 0 1 224.00500000000000 236.50299999999999)" fill="rgb(219,219,219)" stroke="none" stroke-width="1"/><rect id="efl1eg4ptdq47" width="117" height="18.000800" rx="6" ry="0" transform="matrix(1 0 0 1 223.00500000000000 211.50299999999999)" fill="rgb(219,219,219)" stroke="none" stroke-width="1"/><rect id="efl1eg4ptdq48" width="90.000200" height="18.000800" rx="6" ry="0" transform="matrix(1 0 0 1 224.00500000000000 185.50299999999999)" fill="rgb(219,219,219)" stroke="none" stroke-width="1"/><rect id="efl1eg4ptdq49" width="121" height="18.000800" rx="6" ry="0" transform="matrix(1 0 0 1 245.00500000000000 158.50299999999999)" fill="rgb(219,219,219)" stroke="none" stroke-width="1"/><rect id="efl1eg4ptdq50" width="103" height="18.000800" rx="6" ry="0" transform="matrix(1 0 0 1 224.00500000000000 132.50299999999999)" fill="rgb(219,219,219)" stroke="none" stroke-width="1"/><rect id="efl1eg4ptdq51" width="103" height="18.000800" rx="6" ry="0" transform="matrix(1 0 0 1 263.00500000000000 108.50300000000000)" fill="rgb(219,219,219)" stroke="none" stroke-width="1"/><rect id="efl1eg4ptdq52" width="159" height="22.000700" rx="0" ry="0" transform="matrix(1 0 0 1 215.00399999999999 76.50340000000000)" fill="rgb(122,155,129)" stroke="none" stroke-width="1"/></g><g id="efl1eg4ptdq53"><rect id="efl1eg4ptdq54" width="159" height="187" rx="0" ry="0" transform="matrix(1 0 0 1 418 21)" fill="rgb(174,226,188)" stroke="none" stroke-width="1"/><rect id="efl1eg4ptdq55" width="159" height="187" rx="0" ry="0" transform="matrix(1 0 0 1 415.00400000000002 17.50320000000000)" fill="rgb(159,198,168)" stroke="none" stroke-width="1"/><rect id="efl1eg4ptdq56" width="159" height="22.000700" rx="0" ry="0" transform="matrix(1 0 0 1 415.00400000000002 17.50320000000000)" fill="rgb(122,155,129)" stroke="none" stroke-width="1"/><rect id="efl1eg4ptdq57" width="103" height="18.000800" rx="6" ry="0" transform="matrix(1 0 0 1 463.00500000000000 49.50300000000000)" fill="rgb(219,219,219)" stroke="none" stroke-width="1"/><rect id="efl1eg4ptdq58" width="103" height="18.000800" rx="6" ry="0" transform="matrix(1 0 0 1 424.00599999999997 73.50279999999999)" fill="rgb(219,219,219)" stroke="none" stroke-width="1"/><rect id="efl1eg4ptdq59" width="117" height="18.000800" rx="6" ry="0" transform="matrix(1 0 0 1 423.00599999999997 152.50200000000001)" fill="rgb(219,219,219)" stroke="none" stroke-width="1"/><rect id="efl1eg4ptdq60" width="90.000200" height="18.000800" rx="6" ry="0" transform="matrix(1 0 0 1 424.00599999999997 126.50200000000000)" fill="rgb(219,219,219)" stroke="none" stroke-width="1"/><rect id="efl1eg4ptdq61" width="121" height="18.000800" rx="6" ry="0" transform="matrix(1 0 0 1 445.00599999999997 99.50260000000000)" fill="rgb(219,219,219)" stroke="none" stroke-width="1"/><rect id="efl1eg4ptdq62" width="90.000200" height="18.000800" rx="6" ry="0" transform="matrix(1 0 0 1 424.00599999999997 177.50299999999999)" fill="rgb(219,219,219)" stroke="none" stroke-width="1"/></g><g id="efl1eg4ptdq63"><rect id="efl1eg4ptdq64" width="159" height="187" rx="0" ry="0" transform="matrix(1 0 0 1 27 221)" fill="rgb(174,226,188)" stroke="none" stroke-width="1"/><rect id="efl1eg4ptdq65" width="159" height="187" rx="0" ry="0" transform="matrix(1 0 0 1 24.00310000000000 217.50399999999999)" fill="rgb(159,198,168)" stroke="none" stroke-width="1"/><rect id="efl1eg4ptdq66" width="90.000200" height="18.000800" rx="6" ry="0" transform="matrix(1 0 0 1 33.00420000000000 377.50299999999999)" fill="rgb(219,219,219)" stroke="none" stroke-width="1"/><rect id="efl1eg4ptdq67" width="117" height="18.000800" rx="6" ry="0" transform="matrix(1 0 0 1 32.00420000000000 352.50299999999999)" fill="rgb(219,219,219)" stroke="none" stroke-width="1"/><rect id="efl1eg4ptdq68" width="90.000200" height="18.000800" rx="6" ry="0" transform="matrix(1 0 0 1 33.00420000000000 326.50299999999999)" fill="rgb(219,219,219)" stroke="none" stroke-width="1"/><rect id="efl1eg4ptdq69" width="121" height="18.000800" rx="6" ry="0" transform="matrix(1 0 0 1 54.00430000000000 299.50299999999999)" fill="rgb(219,219,219)" stroke="none" stroke-width="1"/><rect id="efl1eg4ptdq70" width="103" height="18.000800" rx="6" ry="0" transform="matrix(1 0 0 1 33.00430000000000 273.50299999999999)" fill="rgb(219,219,219)" stroke="none" stroke-width="1"/><rect id="efl1eg4ptdq71" width="103" height="18.000800" rx="6" ry="0" transform="matrix(1 0 0 1 72.00400000000000 249.50399999999999)" fill="rgb(219,219,219)" stroke="none" stroke-width="1"/><rect id="efl1eg4ptdq72" width="159" height="22.000700" rx="0" ry="0" transform="matrix(1 0 0 1 24.00310000000000 217.50399999999999)" fill="rgb(122,155,129)" stroke="none" stroke-width="1"/></g><g id="efl1eg4ptdq73"><rect id="efl1eg4ptdq74" width="128" height="128.596000" rx="5" ry="0" transform="matrix(1 0 0 1 714 218.50399999999999)" fill="rgb(174,226,188)" stroke="none" stroke-width="1"/><rect id="efl1eg4ptdq75" width="130" height="130" rx="5" ry="0" transform="matrix(1 0 0 1 708 213.50399999999999)" fill="rgb(159,198,168)" stroke="none" stroke-width="1"/><g id="efl1eg4ptdq76"><g id="efl1eg4ptdq77" transform="matrix(0.01273100000000 -0.00514400000000 0.00514400000000 0.01273100000000 -17072 -11309)"><path id="efl1eg4ptdq78" d="M887757.111362,1271448.120422C887251.016392,1271010.633292,886920.166232,1270442.026102,886776.646762,1269768.775022C886737.367752,1269579.659552,886734.346292,1269550.661842,886734.346292,1269185.038592C886734.346292,1268819.415342,886737.367752,1268790.417642,886776.646762,1268601.302162C886920.166232,1267926.790312,887254.037852,1267355.661582,887758.622092,1266920.695992L887912.716682,1266787.054392L888068.322012,1266921.956772C888574.416992,1267359.443892,888905.267142,1267928.051082,889048.786612,1268601.302162C889088.065622,1268790.417642,889091.087082,1268819.415342,889091.087082,1269185.038592C889091.087082,1269550.661842,889088.065622,1269579.659552,889048.786612,1269768.775022C888905.267142,1270443.286872,888571.395522,1271014.415602,888066.811282,1271449.381192L887912.716682,1271583.022792L887757.111362,1271448.120422Z" fill="rgb(39,68,65)" stroke="none" stroke-width="1"/><path id="efl1eg4ptdq79" d="M887810.700462,1270978.991852C887475.700462,1270631.991852,887256.700462,1270180.991852,887161.700462,1269646.991852C887135.700462,1269496.991852,887133.700462,1269473.991852,887133.700462,1269183.991852C887133.700462,1268893.991852,887135.700462,1268870.991852,887161.700462,1268720.991852C887256.700462,1268185.991852,887477.700462,1267732.991852,887811.700462,1267387.991852L887913.700462,1267281.991852L888016.700462,1267388.991852C888351.700462,1267735.991852,888570.700462,1268186.991852,888665.700462,1268720.991852C888691.700462,1268870.991852,888693.700462,1268893.991852,888693.700462,1269183.991852C888693.700462,1269473.991852,888691.700462,1269496.991852,888665.700462,1269646.991852C888570.700462,1270181.991852,888349.700462,1270634.991852,888015.700462,1270979.991852L887913.700462,1271085.991852L887810.700462,1270978.991852Z" fill="rgb(81,139,91)" stroke="none" stroke-width="1"/></g><g id="efl1eg4ptdq80" transform="matrix(0.01273100000000 0.00514400000000 -0.00514400000000 0.01273100000000 -17012.59999999999854 -11330.70000000000073)"><path id="efl1eg4ptdq81" d="M1518475.142868,300882.053110C1517969.047898,300444.565980,1517638.197738,299875.958790,1517494.678268,299202.707710C1517455.399258,299013.592240,1517452.377798,298984.594530,1517452.377798,298618.971280C1517452.377798,298253.348030,1517455.399258,298224.350330,1517494.678268,298035.234850C1517638.197738,297360.723000,1517972.069358,296789.594270,1518476.653598,296354.628680L1518630.748188,296220.987080L1518786.353518,296355.889460C1519292.448498,296793.376580,1519623.298648,297361.983770,1519766.818118,298035.234850C1519806.097128,298224.350330,1519809.118588,298253.348030,1519809.118588,298618.971280C1519809.118588,298984.594530,1519806.097128,299013.592240,1519766.818118,299202.707710C1519623.298648,299877.219560,1519289.427028,300448.348290,1518784.842788,300883.313880L1518630.748188,301016.955480L1518475.142868,300882.053110Z" fill="rgb(39,68,65)" stroke="none" stroke-width="1"/><path id="efl1eg4ptdq82" d="M1518528.731968,300412.924540C1518193.731968,300065.924540,1517974.731968,299614.924540,1517879.731968,299080.924540C1517853.731968,298930.924540,1517851.731968,298907.924540,1517851.731968,298617.924540C1517851.731968,298327.924540,1517853.731968,298304.924540,1517879.731968,298154.924540C1517974.731968,297619.924540,1518195.731968,297166.924540,1518529.731968,296821.924540L1518631.731968,296715.924540L1518734.731968,296822.924540C1519069.731968,297169.924540,1519288.731968,297620.924540,1519383.731968,298154.924540C1519409.731968,298304.924540,1519411.731968,298327.924540,1519411.731968,298617.924540C1519411.731968,298907.924540,1519409.731968,298930.924540,1519383.731968,299080.924540C1519288.731968,299615.924540,1519067.731968,300068.924540,1518733.731968,300413.924540L1518631.731968,300519.924540L1518528.731968,300412.924540Z" fill="rgb(81,139,91)" stroke="none" stroke-width="1"/></g><g id="efl1eg4ptdq83" transform="matrix(0.00987700000000 0.00953800000000 -0.00953800000000 0.00987700000000 -16981.20000000000073 -11323.79999999999927)"><path id="efl1eg4ptdq84" d="M1518656.629123,-288699.666371C1518150.534153,-289137.153501,1517819.683993,-289705.760691,1517676.164523,-290379.011771C1517636.885513,-290568.127241,1517633.864053,-290597.124951,1517633.864053,-290962.748201C1517633.864053,-291328.371451,1517636.885513,-291357.369151,1517676.164523,-291546.484631C1517819.683993,-292220.996481,1518153.555613,-292792.125211,1518658.139853,-293227.090801L1518812.234443,-293360.732401L1518967.839773,-293225.830021C1519473.934753,-292788.342901,1519804.784903,-292219.735711,1519948.304373,-291546.484631C1519987.583383,-291357.369151,1519990.604843,-291328.371451,1519990.604843,-290962.748201C1519990.604843,-290597.124951,1519987.583383,-290568.127241,1519948.304373,-290379.011771C1519804.784903,-289704.499921,1519470.913283,-289133.371191,1518966.329043,-288698.405601L1518812.234443,-288564.764001L1518656.629123,-288699.666371Z" fill="rgb(39,68,65)" stroke="none" stroke-width="1"/><path id="efl1eg4ptdq85" d="M1518710.218223,-289168.794941C1518375.218223,-289515.794941,1518156.218223,-289966.794941,1518061.218223,-290500.794941C1518035.218223,-290650.794941,1518033.218223,-290673.794941,1518033.218223,-290963.794941C1518033.218223,-291253.794941,1518035.218223,-291276.794941,1518061.218223,-291426.794941C1518156.218223,-291961.794941,1518377.218223,-292414.794941,1518711.218223,-292759.794941L1518813.218223,-292865.794941L1518916.218223,-292758.794941C1519251.218223,-292411.794941,1519470.218223,-291960.794941,1519565.218223,-291426.794941C1519591.218223,-291276.794941,1519593.218223,-291253.794941,1519593.218223,-290963.794941C1519593.218223,-290673.794941,1519591.218223,-290650.794941,1519565.218223,-290500.794941C1519470.218223,-289965.794941,1519249.218223,-289512.794941,1518915.218223,-289167.794941L1518813.218223,-289061.794941L1518710.218223,-289168.794941Z" fill="rgb(81,139,91)" stroke="none" stroke-width="1"/></g><g id="efl1eg4ptdq86" transform="matrix(0.00987700000000 -0.00953800000000 0.00953800000000 0.00987700000000 -17091 -11282.79999999999927)"><path id="efl1eg4ptdq87" d="M349074.508150,1511085.706272C348568.413180,1510648.219142,348237.563020,1510079.611952,348094.043550,1509406.360872C348054.764540,1509217.245402,348051.743080,1509188.247692,348051.743080,1508822.624442C348051.743080,1508457.001192,348054.764540,1508428.003492,348094.043550,1508238.888012C348237.563020,1507564.376162,348571.434640,1506993.247432,349076.018880,1506558.281842L349230.113470,1506424.640242L349385.718800,1506559.542622C349891.813780,1506997.029742,350222.663930,1507565.636932,350366.183400,1508238.888012C350405.462410,1508428.003492,350408.483870,1508457.001192,350408.483870,1508822.624442C350408.483870,1509188.247692,350405.462410,1509217.245402,350366.183400,1509406.360872C350222.663930,1510080.872722,349888.792310,1510652.001452,349384.208070,1511086.967042L349230.113470,1511220.608642L349074.508150,1511085.706272Z" fill="rgb(39,68,65)" stroke="none" stroke-width="1"/><path id="efl1eg4ptdq88" d="M349127.113476,1510617.624443C348792.113476,1510270.624443,348573.113476,1509819.624443,348478.113476,1509285.624443C348452.113476,1509135.624443,348450.113476,1509112.624443,348450.113476,1508822.624443C348450.113476,1508532.624443,348452.113476,1508509.624443,348478.113476,1508359.624443C348573.113476,1507824.624443,348794.113476,1507371.624443,349128.113476,1507026.624443L349230.113476,1506920.624443L349333.113476,1507027.624443C349668.113476,1507374.624443,349887.113476,1507825.624443,349982.113476,1508359.624443C350008.113476,1508509.624443,350010.113476,1508532.624443,350010.113476,1508822.624443C350010.113476,1509112.624443,350008.113476,1509135.624443,349982.113476,1509285.624443C349887.113476,1509820.624443,349666.113476,1510273.624443,349332.113476,1510618.624443L349230.113476,1510724.624443L349127.113476,1510617.624443Z" fill="rgb(81,139,91)" stroke="none" stroke-width="1"/></g><g id="efl1eg4ptdq89" transform="matrix(0.01373100000000 0 0 0.01373100000000 -17044.40000000000146 -11325.60000000000036)"><path id="efl1eg4ptdq90" d="M1297445.515270,847464.643249C1296939.420300,847027.156119,1296608.570140,846458.548929,1296465.050670,845785.297849C1296425.771660,845596.182379,1296422.750200,845567.184669,1296422.750200,845201.561419C1296422.750200,844835.938169,1296425.771660,844806.940469,1296465.050670,844617.824989C1296608.570140,843943.313139,1296942.441760,843372.184409,1297447.026000,842937.218819L1297601.120590,842803.577219L1297756.725920,842938.479599C1298262.820900,843375.966719,1298593.671050,843944.573909,1298737.190520,844617.824989C1298776.469530,844806.940469,1298779.490990,844835.938169,1298779.490990,845201.561419C1298779.490990,845567.184669,1298776.469530,845596.182379,1298737.190520,845785.297849C1298593.671050,846459.809699,1298259.799430,847030.938429,1297755.215190,847465.904019L1297601.120590,847599.545619L1297445.515270,847464.643249Z" fill="rgb(39,68,65)" stroke="none" stroke-width="1"/><path id="efl1eg4ptdq91" d="M1297499.104370,846995.514679C1297164.104370,846648.514679,1296945.104370,846197.514679,1296850.104370,845663.514679C1296824.104370,845513.514679,1296822.104370,845490.514679,1296822.104370,845200.514679C1296822.104370,844910.514679,1296824.104370,844887.514679,1296850.104370,844737.514679C1296945.104370,844202.514679,1297166.104370,843749.514679,1297500.104370,843404.514679L1297602.104370,843298.514679L1297705.104370,843405.514679C1298040.104370,843752.514679,1298259.104370,844203.514679,1298354.104370,844737.514679C1298380.104370,844887.514679,1298382.104370,844910.514679,1298382.104370,845200.514679C1298382.104370,845490.514679,1298380.104370,845513.514679,1298354.104370,845663.514679C1298259.104370,846198.514679,1298038.104370,846651.514679,1297704.104370,846996.514679L1297602.104370,847102.514679L1297499.104370,846995.514679Z" fill="rgb(81,139,91)" stroke="none" stroke-width="1"/></g></g></g></svg>