<svg id="edbqujtq6a1g1" xmlns="http://www.w3.org/2000/svg" xmlns:xlink="http://www.w3.org/1999/xlink" viewBox="0 0 10000 6530" shape-rendering="geometricPrecision" text-rendering="geometricPrecision"><g id="edbqujtq6a1g2" transform="matrix(0.92718385456679 -0.37460659341591 0.37460659341591 0.92718385456679 841.40162177586717 1107.89245362541260)"><path id="edbqujtq6a1g3" d="M1998.410904,5624.128567C1492.315925,5186.641440,1161.465775,4618.034251,1017.946304,3944.783168C978.667291,3755.667695,975.645828,3726.669989,975.645828,3361.046741C975.645828,2995.423493,978.667291,2966.425787,1017.946304,2777.310314C1161.465775,2102.798461,1495.337388,1531.669733,1999.921635,1096.704145L2154.016225,963.062544L2309.621547,1097.964915C2815.716526,1535.452042,3146.566676,2104.059231,3290.086147,2777.310314C3329.365160,2966.425787,3332.386623,2995.423493,3332.386623,3361.046741C3332.386623,3726.669989,3329.365160,3755.667695,3290.086147,3944.783168C3146.566676,4619.295021,2812.695063,5190.423749,2308.110816,5625.389337L2154.016225,5759.030938L1998.410904,5624.128567Z" fill="rgb(39,68,65)" stroke="none" stroke-width="1"/><path id="edbqujtq6a1g4" d="M2052,5155C1717,4808,1498,4357,1403,3823C1377,3673,1375,3650,1375,3360C1375,3070,1377,3047,1403,2897C1498,2362,1719,1909,2053,1564L2155,1458L2258,1565C2593,1912,2812,2363,2907,2897C2933,3047,2935,3070,2935,3360C2935,3650,2933,3673,2907,3823C2812,4358,2591,4811,2257,5156L2155,5262L2052,5155Z" fill="rgb(81,139,91)" stroke="none" stroke-width="1"/></g><g id="edbqujtq6a1g5" transform="matrix(0.92718385456679 0.37460659341591 -0.37460659341591 0.92718385456679 5162.50680258000648 -472.65041468500203)"><path id="edbqujtq6a1g6" d="M1998.410904,5624.128567C1492.315925,5186.641440,1161.465775,4618.034251,1017.946304,3944.783168C978.667291,3755.667695,975.645828,3726.669989,975.645828,3361.046741C975.645828,2995.423493,978.667291,2966.425787,1017.946304,2777.310314C1161.465775,2102.798461,1495.337388,1531.669733,1999.921635,1096.704145L2154.016225,963.062544L2309.621547,1097.964915C2815.716526,1535.452042,3146.566676,2104.059231,3290.086147,2777.310314C3329.365160,2966.425787,3332.386623,2995.423493,3332.386623,3361.046741C3332.386623,3726.669989,3329.365160,3755.667695,3290.086147,3944.783168C3146.566676,4619.295021,2812.695063,5190.423749,2308.110816,5625.389337L2154.016225,5759.030938L1998.410904,5624.128567Z" fill="rgb(39,68,65)" stroke="none" stroke-width="1"/><path id="edbqujtq6a1g7" d="M2052,5155C1717,4808,1498,4357,1403,3823C1377,3673,1375,3650,1375,3360C1375,3070,1377,3047,1403,2897C1498,2362,1719,1909,2053,1564L2155,1458L2258,1565C2593,1912,2812,2363,2907,2897C2933,3047,2935,3070,2935,3360C2935,3650,2933,3673,2907,3823C2812,4358,2591,4811,2257,5156L2155,5262L2052,5155Z" fill="rgb(81,139,91)" stroke="none" stroke-width="1"/></g><g id="edbqujtq6a1g8" transform="matrix(0.71933980033865 0.69465837045900 -0.69465837045900 0.71933980033865 7452.07307795499582 30.42040512999301)"><path id="edbqujtq6a1g9" d="M1998.410904,5624.128567C1492.315925,5186.641440,1161.465775,4618.034251,1017.946304,3944.783168C978.667291,3755.667695,975.645828,3726.669989,975.645828,3361.046741C975.645828,2995.423493,978.667291,2966.425787,1017.946304,2777.310314C1161.465775,2102.798461,1495.337388,1531.669733,1999.921635,1096.704145L2154.016225,963.062544L2309.621547,1097.964915C2815.716526,1535.452042,3146.566676,2104.059231,3290.086147,2777.310314C3329.365160,2966.425787,3332.386623,2995.423493,3332.386623,3361.046741C3332.386623,3726.669989,3329.365160,3755.667695,3290.086147,3944.783168C3146.566676,4619.295021,2812.695063,5190.423749,2308.110816,5625.389337L2154.016225,5759.030938L1998.410904,5624.128567Z" fill="rgb(39,68,65)" stroke="none" stroke-width="1"/><path id="edbqujtq6a1g10" d="M2052,5155C1717,4808,1498,4357,1403,3823C1377,3673,1375,3650,1375,3360C1375,3070,1377,3047,1403,2897C1498,2362,1719,1909,2053,1564L2155,1458L2258,1565C2593,1912,2812,2363,2907,2897C2933,3047,2935,3070,2935,3360C2935,3650,2933,3673,2907,3823C2812,4358,2591,4811,2257,5156L2155,5262L2052,5155Z" fill="rgb(81,139,91)" stroke="none" stroke-width="1"/></g><g id="edbqujtq6a1g11" transform="matrix(0.71933980033865 -0.69465837045900 0.69465837045900 0.71933980033865 -543.82369732008465 3015.92420932161440)"><path id="edbqujtq6a1g12" d="M1998.410904,5624.128567C1492.315925,5186.641440,1161.465775,4618.034251,1017.946304,3944.783168C978.667291,3755.667695,975.645828,3726.669989,975.645828,3361.046741C975.645828,2995.423493,978.667291,2966.425787,1017.946304,2777.310314C1161.465775,2102.798461,1495.337388,1531.669733,1999.921635,1096.704145L2154.016225,963.062544L2309.621547,1097.964915C2815.716526,1535.452042,3146.566676,2104.059231,3290.086147,2777.310314C3329.365160,2966.425787,3332.386623,2995.423493,3332.386623,3361.046741C3332.386623,3726.669989,3329.365160,3755.667695,3290.086147,3944.783168C3146.566676,4619.295021,2812.695063,5190.423749,2308.110816,5625.389337L2154.016225,5759.030938L1998.410904,5624.128567Z" transform="matrix(1 0 0 1 0.98377449999975 -1.04674099500062)" fill="rgb(39,68,65)" stroke="none" stroke-width="1"/><path id="edbqujtq6a1g13" d="M2052,5155C1717,4808,1498,4357,1403,3823C1377,3673,1375,3650,1375,3360C1375,3070,1377,3047,1403,2897C1498,2362,1719,1909,2053,1564L2155,1458L2258,1565C2593,1912,2812,2363,2907,2897C2933,3047,2935,3070,2935,3360C2935,3650,2933,3673,2907,3823C2812,4358,2591,4811,2257,5156L2155,5262L2052,5155Z" fill="rgb(81,139,91)" stroke="none" stroke-width="1"/></g><g id="edbqujtq6a1g14" transform="matrix(1 0 0 1 2845.98370361000207 -96.04669189500009)"><path id="edbqujtq6a1g15" d="M1998.410904,5624.128567C1492.315925,5186.641440,1161.465775,4618.034251,1017.946304,3944.783168C978.667291,3755.667695,975.645828,3726.669989,975.645828,3361.046741C975.645828,2995.423493,978.667291,2966.425787,1017.946304,2777.310314C1161.465775,2102.798461,1495.337388,1531.669733,1999.921635,1096.704145L2154.016225,963.062544L2309.621547,1097.964915C2815.716526,1535.452042,3146.566676,2104.059231,3290.086147,2777.310314C3329.365160,2966.425787,3332.386623,2995.423493,3332.386623,3361.046741C3332.386623,3726.669989,3329.365160,3755.667695,3290.086147,3944.783168C3146.566676,4619.295021,2812.695063,5190.423749,2308.110816,5625.389337L2154.016225,5759.030938L1998.410904,5624.128567Z" fill="rgb(39,68,65)" stroke="none" stroke-width="1"/><path id="edbqujtq6a1g16" d="M2052,5155C1717,4808,1498,4357,1403,3823C1377,3673,1375,3650,1375,3360C1375,3070,1377,3047,1403,2897C1498,2362,1719,1909,2053,1564L2155,1458L2258,1565C2593,1912,2812,2363,2907,2897C2933,3047,2935,3070,2935,3360C2935,3650,2933,3673,2907,3823C2812,4358,2591,4811,2257,5156L2155,5262L2052,5155Z" fill="rgb(81,139,91)" stroke="none" stroke-width="1"/></g></svg>